<svg width="23" height="23" viewBox="0 0 23 23" fill="none" xmlns="http://www.w3.org/2000/svg">
<g clip-path="url(#clip0_227_30460)">
<path opacity="0.9" d="M20.584 3.67573C20.0577 3.14458 19.4322 2.72314 18.7436 2.43558C18.0549 2.14802 17.3166 2 16.5709 2C15.8253 2 15.087 2.14802 14.3983 2.43558C13.7096 2.72314 13.0842 3.14458 12.5579 3.67573L11.75 4.49868L10.9421 3.67573C10.4158 3.14458 9.79036 2.72314 9.1017 2.43558C8.41305 2.14802 7.67472 2 6.92906 2C6.1834 2 5.44507 2.14802 4.75641 2.43558C4.06776 2.72314 3.44232 3.14458 2.91598 3.67573C0.691735 5.91248 0.555342 9.68963 3.35663 12.5594L11.75 21L20.1434 12.5594C22.9447 9.68963 22.8083 5.91248 20.584 3.67573Z" stroke="#C7C7C7" stroke-width="1.6" stroke-linecap="round" stroke-linejoin="round"/>
</g>
<defs>
<clipPath id="clip0_227_30460">
<rect width="23" height="23" fill="white"/>
</clipPath>
</defs>
</svg>
